<svg xmlns="http://www.w3.org/2000/svg" viewBox="0 0 1380 900" width="1380" height="900">
  
  <defs>
    <linearGradient id="grad-bg" x1="0%" y1="0%" x2="100%" y2="100%">
      <stop offset="0%" stop-color="#090d16" />
      <stop offset="50%" stop-color="#0f172a" />
      <stop offset="100%" stop-color="#1e293b" />
    </linearGradient>
    <linearGradient id="grad-card" x1="0%" y1="0%" x2="0%" y2="100%">
      <stop offset="0%" stop-color="#1e293b" stop-opacity="0.95" />
      <stop offset="100%" stop-color="#0f172a" stop-opacity="0.98" />
    </linearGradient>
    <linearGradient id="grad-blue" x1="0%" y1="0%" x2="100%" y2="100%">
      <stop offset="0%" stop-color="#38bdf8" />
      <stop offset="100%" stop-color="#0284c7" />
    </linearGradient>
    <linearGradient id="grad-cyan" x1="0%" y1="0%" x2="100%" y2="100%">
      <stop offset="0%" stop-color="#22d3ee" />
      <stop offset="100%" stop-color="#0891b2" />
    </linearGradient>
    <linearGradient id="grad-teal" x1="0%" y1="0%" x2="100%" y2="100%">
      <stop offset="0%" stop-color="#2dd4bf" />
      <stop offset="100%" stop-color="#0d9488" />
    </linearGradient>
    <linearGradient id="grad-purple" x1="0%" y1="0%" x2="100%" y2="100%">
      <stop offset="0%" stop-color="#c084fc" />
      <stop offset="100%" stop-color="#7e22ce" />
    </linearGradient>
    <linearGradient id="grad-amber" x1="0%" y1="0%" x2="100%" y2="100%">
      <stop offset="0%" stop-color="#fbbf24" />
      <stop offset="100%" stop-color="#d97706" />
    </linearGradient>
    <linearGradient id="grad-rose" x1="0%" y1="0%" x2="100%" y2="100%">
      <stop offset="0%" stop-color="#fb7185" />
      <stop offset="100%" stop-color="#e11d48" />
    </linearGradient>
    <linearGradient id="grad-emerald" x1="0%" y1="0%" x2="100%" y2="100%">
      <stop offset="0%" stop-color="#34d399" />
      <stop offset="100%" stop-color="#059669" />
    </linearGradient>
    <linearGradient id="grad-indigo" x1="0%" y1="0%" x2="100%" y2="100%">
      <stop offset="0%" stop-color="#818cf8" />
      <stop offset="100%" stop-color="#4f46e5" />
    </linearGradient>

    <!-- Filters -->
    <filter id="shadow" x="-5%" y="-5%" width="115%" height="115%">
      <feDropShadow dx="0" dy="4" stdDeviation="6" flood-color="#000000" flood-opacity="0.5" />
    </filter>
    <filter id="glow-teal" x="-20%" y="-20%" width="140%" height="140%">
      <feGaussianBlur stdDeviation="5" result="blur" />
      <feComposite in="SourceGraphic" in2="blur" operator="over" />
    </filter>
    <filter id="glow-purple" x="-20%" y="-20%" width="140%" height="140%">
      <feGaussianBlur stdDeviation="5" result="blur" />
      <feComposite in="SourceGraphic" in2="blur" operator="over" />
    </filter>

    <!-- Arrow Markers -->
    <marker id="arrow" viewBox="0 0 10 10" refX="9" refY="5" markerWidth="6" markerHeight="6" orient="auto-start-reverse">
      <path d="M 0 1.5 L 10 5 L 0 8.5 z" fill="#94a3b8" />
    </marker>
    <marker id="arrow-teal" viewBox="0 0 10 10" refX="9" refY="5" markerWidth="6" markerHeight="6" orient="auto-start-reverse">
      <path d="M 0 1.5 L 10 5 L 0 8.5 z" fill="#2dd4bf" />
    </marker>
    <marker id="arrow-blue" viewBox="0 0 10 10" refX="9" refY="5" markerWidth="6" markerHeight="6" orient="auto-start-reverse">
      <path d="M 0 1.5 L 10 5 L 0 8.5 z" fill="#38bdf8" />
    </marker>
    <marker id="arrow-purple" viewBox="0 0 10 10" refX="9" refY="5" markerWidth="6" markerHeight="6" orient="auto-start-reverse">
      <path d="M 0 1.5 L 10 5 L 0 8.5 z" fill="#c084fc" />
    </marker>
    <marker id="arrow-amber" viewBox="0 0 10 10" refX="9" refY="5" markerWidth="6" markerHeight="6" orient="auto-start-reverse">
      <path d="M 0 1.5 L 10 5 L 0 8.5 z" fill="#fbbf24" />
    </marker>
    <marker id="arrow-rose" viewBox="0 0 10 10" refX="9" refY="5" markerWidth="6" markerHeight="6" orient="auto-start-reverse">
      <path d="M 0 1.5 L 10 5 L 0 8.5 z" fill="#fb7185" />
    </marker>
    <marker id="arrow-green" viewBox="0 0 10 10" refX="9" refY="5" markerWidth="6" markerHeight="6" orient="auto-start-reverse">
      <path d="M 0 1.5 L 10 5 L 0 8.5 z" fill="#34d399" />
    </marker>
  </defs>

  <!-- Background -->
  <rect width="1380" height="900" fill="url(#grad-bg)"/>
  
  <g opacity="0.05">
    <path d="M 0 0 L 0 900 M 40 0 L 40 900 M 80 0 L 80 900 M 120 0 L 120 900 M 160 0 L 160 900 M 200 0 L 200 900 M 240 0 L 240 900 M 280 0 L 280 900 M 320 0 L 320 900 M 360 0 L 360 900 M 400 0 L 400 900 M 440 0 L 440 900 M 480 0 L 480 900 M 520 0 L 520 900 M 560 0 L 560 900 M 600 0 L 600 900 M 640 0 L 640 900 M 680 0 L 680 900 M 720 0 L 720 900 M 760 0 L 760 900 M 800 0 L 800 900 M 840 0 L 840 900 M 880 0 L 880 900 M 920 0 L 920 900 M 960 0 L 960 900 M 1000 0 L 1000 900 M 1040 0 L 1040 900 M 1080 0 L 1080 900 M 1120 0 L 1120 900 M 1160 0 L 1160 900 M 1200 0 L 1200 900 M 1240 0 L 1240 900 M 1280 0 L 1280 900 M 1320 0 L 1320 900 M 1360 0 L 1360 900" stroke="#94a3b8" stroke-width="1"/>
    <path d="M 0 0 L 1380 0 M 0 40 L 1380 40 M 0 80 L 1380 80 M 0 120 L 1380 120 M 0 160 L 1380 160 M 0 200 L 1380 200 M 0 240 L 1380 240 M 0 280 L 1380 280 M 0 320 L 1380 320 M 0 360 L 1380 360 M 0 400 L 1380 400 M 0 440 L 1380 440 M 0 480 L 1380 480 M 0 520 L 1380 520 M 0 560 L 1380 560 M 0 600 L 1380 600 M 0 640 L 1380 640 M 0 680 L 1380 680 M 0 720 L 1380 720 M 0 760 L 1380 760 M 0 800 L 1380 800 M 0 840 L 1380 840 M 0 880 L 1380 880" stroke="#94a3b8" stroke-width="1"/>
  </g>

  <!-- Header -->
  <g transform="translate(60, 40)">
    <rect width="1260" height="90" rx="12" fill="url(#grad-card)" stroke="#4338ca" stroke-width="1.8" filter="url(#shadow)"/>
    <rect width="8" height="90" rx="4" fill="url(#grad-indigo)"/>
    <text x="32" y="36" font-family="sans-serif" font-size="22" font-weight="800" fill="#f8fafc">MODEL 3: DENSE ANISOTROPIC 3D U-NET (20.9M PARAMETERS)</text>
    <text x="32" y="64" font-family="sans-serif" font-size="13" font-weight="500" fill="#94a3b8">Colloquially "nnU-Net 25M": Full 3D Convolutions, Anisotropic Axial Strides, GroupNorm + SiLU, Outlier Immunity</text>
    <rect x="1050" y="26" width="180" height="38" rx="6" fill="#1e1b4b" stroke="#818cf8"/>
    <text x="1140" y="50" font-family="sans-serif" font-size="12" font-weight="800" fill="#a5b4fc" text-anchor="middle">20,903,329 PARAMS</text>
  </g>

  <!-- Left: Why Anisotropic 3D? -->
  <g transform="translate(60, 160)">
    <rect width="330" height="420" rx="12" fill="url(#grad-card)" stroke="#334155" stroke-width="1.5" filter="url(#shadow)"/>
    <text x="24" y="32" font-family="sans-serif" font-size="15" font-weight="800" fill="#818cf8">THE ANISOTROPY CHALLENGE</text>
    <text x="24" y="50" font-family="sans-serif" font-size="11" fill="#94a3b8">Standard 3D U-Nets fail due to extreme voxel ratio:</text>

    <!-- Visual Aspect Ratio Comparison -->
    <g transform="translate(24, 75)">
      <rect width="282" height="90" rx="6" fill="#0b1120" stroke="#1e293b"/>
      <text x="14" y="22" font-family="sans-serif" font-size="11" font-weight="700" fill="#f8fafc">Solix OCT Voxel Spacing Ratio:</text>
      <text x="14" y="42" font-family="monospace" font-size="9.5" font-weight="700" fill="#fb7185">Z(Slow) : Y(Axial) : X(Fast) ≈ 10.3 : 1.0 : 4.8</text>
      <text x="14" y="60" font-family="sans-serif" font-size="10" fill="#94a3b8">• Axial Y depth is ultra-fine (3.9 µm/px, 768 rows)</text>
      <text x="14" y="76" font-family="sans-serif" font-size="10" fill="#94a3b8">• Slow Z spacing is coarse (40 µm/scan, 128 slices)</text>
    </g>

    <g transform="translate(24, 180)">
      <rect width="280" height="110" rx="6" fill="#1e1b4b" stroke="#4338ca"/>
      <text x="16" y="22" font-family="sans-serif" font-size="11" font-weight="800" fill="#a5b4fc">Anisotropic Downsampling Strategy:</text>
      <text x="16" y="42" font-family="sans-serif" font-size="10" fill="#e2e8f0">• <tspan font-weight="700" fill="#818cf8">Down 1 &amp; 2:</tspan> Stride <tspan font-weight="700" fill="#38bdf8">(1, 2, 1)</tspan></text>
      <text x="16" y="58" font-family="sans-serif" font-size="9" fill="#94a3b8">  Pools axial Y only! Leaves Z and X intact.</text>
      <text x="16" y="76" font-family="sans-serif" font-size="10" fill="#e2e8f0">• <tspan font-weight="700" fill="#818cf8">Down 3 &amp; Bottleneck:</tspan> Stride <tspan font-weight="700" fill="#38bdf8">(2, 2, 2)</tspan></text>
      <text x="16" y="92" font-family="sans-serif" font-size="9" fill="#94a3b8">  Isotropic pooling once receptive field is balanced.</text>
    </g>

    <g transform="translate(24, 305)">
      <rect width="280" height="95" rx="6" fill="#0b1120" stroke="#1e293b"/>
      <text x="16" y="22" font-family="sans-serif" font-size="11" font-weight="700" fill="#f8fafc">3D Patch Extraction Window:</text>
      <text x="16" y="42" font-family="monospace" font-size="11" fill="#818cf8">Patch: (64, 768, 64) voxels</text>
      <text x="16" y="60" font-family="sans-serif" font-size="10" fill="#94a3b8">• 64 slow-axis Z slices (50% of volume)</text>
      <text x="16" y="76" font-family="sans-serif" font-size="10" fill="#94a3b8">• Full 768 axial depth (zero cropping loss!)</text>
    </g>
  </g>

  <!-- Middle: Full 3D Network Architecture Diagram -->
  <g transform="translate(420, 160)">
    <rect width="890" height="420" rx="12" fill="url(#grad-card)" stroke="#4338ca" stroke-width="1.8" filter="url(#shadow)"/>
    <text x="28" y="32" font-family="sans-serif" font-size="15" font-weight="800" fill="#a5b4fc">3D U-NET PIPELINE &amp; TENSOR DIMENSIONS</text>
    <text x="28" y="50" font-family="sans-serif" font-size="11" fill="#94a3b8">Anisotropic ConvBlock3D (Dual Conv3D + GroupNorm(min 8, C) + SiLU)</text>

    <!-- Encoder Column -->
    <g transform="translate(28, 70)">
      <!-- Enc 0 -->
      <rect width="180" height="50" rx="6" fill="#1e1b4b" stroke="#6366f1"/>
      <text x="14" y="22" font-family="sans-serif" font-size="11" font-weight="800" fill="#c7d2fe">Encoder 0 (32 ch)</text>
      <text x="14" y="38" font-family="monospace" font-size="10" fill="#818cf8">(B, 32, 64, 768, 64)</text>

      <!-- Down 1 -->
      <rect y="65" width="180" height="50" rx="6" fill="#1e1b4b" stroke="#6366f1"/>
      <text x="14" y="87" font-family="sans-serif" font-size="11" font-weight="800" fill="#c7d2fe">Encoder 1 (64 ch)</text>
      <text x="14" y="103" font-family="monospace" font-size="10" fill="#818cf8">(B, 64, 64, 384, 64)</text>
      <text x="190" y="93" font-family="sans-serif" font-size="9" fill="#fbbf24">Stride (1,2,1) ↓</text>

      <!-- Down 2 -->
      <rect y="130" width="180" height="50" rx="6" fill="#1e1b4b" stroke="#6366f1"/>
      <text x="14" y="152" font-family="sans-serif" font-size="11" font-weight="800" fill="#c7d2fe">Encoder 2 (128 ch)</text>
      <text x="14" y="168" font-family="monospace" font-size="10" fill="#818cf8">(B, 128, 64, 192, 64)</text>
      <text x="190" y="158" font-family="sans-serif" font-size="9" fill="#fbbf24">Stride (1,2,1) ↓</text>

      <!-- Down 3 -->
      <rect y="195" width="180" height="50" rx="6" fill="#1e1b4b" stroke="#6366f1"/>
      <text x="14" y="217" font-family="sans-serif" font-size="11" font-weight="800" fill="#c7d2fe">Encoder 3 (256 ch)</text>
      <text x="14" y="233" font-family="monospace" font-size="10" fill="#818cf8">(B, 256, 32, 96, 32)</text>
      <text x="190" y="223" font-family="sans-serif" font-size="9" fill="#38bdf8">Stride (2,2,2) ↓</text>
    </g>

    <!-- Bottleneck -->
    <g transform="translate(270, 265)">
      <rect width="250" height="60" rx="8" fill="#31104b" stroke="#a855f7" stroke-width="1.8"/>
      <text x="125" y="24" font-family="sans-serif" font-size="12" font-weight="800" fill="#f0abfc" text-anchor="middle">BOTTLENECK (384 CHANNELS)</text>
      <text x="125" y="42" font-family="monospace" font-size="11" font-weight="700" fill="#ffffff" text-anchor="middle">(B, 384, 16, 48, 16)</text>
      <text x="125" y="55" font-family="sans-serif" font-size="8" fill="#e879f9" text-anchor="middle">Global Volumetric 3D Context</text>
    </g>

    <!-- Connectors: Enc3 to Bottleneck -->
    <path d="M 210 295 L 270 295" stroke="#a855f7" stroke-width="2" marker-end="url(#arrow-purple)"/>
    <!-- Bottleneck to Dec3 -->
    <path d="M 520 295 L 570 295" stroke="#a855f7" stroke-width="2" marker-end="url(#arrow-purple)"/>

    <!-- Decoder Column -->
    <g transform="translate(570, 70)">
      <!-- Up 3 -->
      <rect y="195" width="280" height="50" rx="6" fill="#172554" stroke="#3b82f6"/>
      <text x="14" y="217" font-family="sans-serif" font-size="11" font-weight="800" fill="#93c5fd">Decoder 3 (256 ch)</text>
      <text x="14" y="233" font-family="monospace" font-size="10" fill="#60a5fa">Trilinear Interp + Skip Enc 3</text>

      <!-- Up 2 -->
      <rect y="130" width="280" height="50" rx="6" fill="#172554" stroke="#3b82f6"/>
      <text x="14" y="152" font-family="sans-serif" font-size="11" font-weight="800" fill="#93c5fd">Decoder 2 (128 ch)</text>
      <text x="14" y="168" font-family="monospace" font-size="10" fill="#60a5fa">Trilinear Interp + Skip Enc 2</text>

      <!-- Up 1 -->
      <rect y="65" width="280" height="50" rx="6" fill="#172554" stroke="#3b82f6"/>
      <text x="14" y="87" font-family="sans-serif" font-size="11" font-weight="800" fill="#93c5fd">Decoder 1 (64 ch)</text>
      <text x="14" y="103" font-family="monospace" font-size="10" fill="#60a5fa">Trilinear Interp + Skip Enc 1</text>

      <!-- Up 0 -->
      <rect width="280" height="50" rx="6" fill="#172554" stroke="#60a5fa"/>
      <text x="14" y="22" font-family="sans-serif" font-size="11" font-weight="800" fill="#bfdbfe">Decoder 0 (32 ch) → Conv3D 1x1</text>
      <text x="14" y="38" font-family="monospace" font-size="10" fill="#93c5fd">Output: (B, 1, 64, 768, 64) logits</text>
    </g>

    <!-- 3D Skip Connections -->
    <path d="M 210 95 L 570 95" stroke="#475569" stroke-width="1.2" stroke-dasharray="3 3"/>
    <path d="M 210 160 L 570 160" stroke="#475569" stroke-width="1.2" stroke-dasharray="3 3"/>
    <path d="M 210 225 L 570 225" stroke="#475569" stroke-width="1.2" stroke-dasharray="3 3"/>
  </g>

  <!-- Bottom: Dense 3D Clinical Insights -->
  <g transform="translate(60, 600)">
    <rect width="1260" height="260" rx="12" fill="url(#grad-card)" stroke="#334155" stroke-width="1.5" filter="url(#shadow)"/>
    <text x="32" y="32" font-family="sans-serif" font-size="16" font-weight="800" fill="#f8fafc">WHY DENSE 3D IS THE "OUTLIER SHIELD" FOR THE RESEARCH COHORT</text>

    <g transform="translate(32, 55)">
      <rect width="580" height="180" rx="8" fill="#0b1120" stroke="#1e293b"/>
      <text x="20" y="26" font-family="sans-serif" font-size="13" font-weight="700" fill="#818cf8">1. Outlier Sensitivity &amp; Worst-Case Error Bound</text>
      <text x="20" y="52" font-family="sans-serif" font-size="11" fill="#cbd5e1">
        <tspan x="20" dy="0">In the 40-eye held-out benchmark, Bi-Planar 2.5D recorded an observed</tspan>
        <tspan x="20" dy="18">maximum scan MABE of <tspan fill="#f43f5e" font-weight="700">39.64 µm</tspan> on subject BEH0290 OD due to localized</tspan>
        <tspan x="20" dy="18">blood-vessel shadowing. On that exact eye, Dense 3D recorded <tspan fill="#34d399" font-weight="700">4.84 µm</tspan>.</tspan>
        <tspan x="20" dy="24">Dense 3D's observed cohort maximum was only <tspan fill="#34d399" font-weight="800">17.02 µm</tspan> (lowest in cohort).</tspan>
        <tspan x="20" dy="18">True 3D receptive fields prevent unconstrained single-slice boundary collapse.</tspan>
      </text>
    </g>

    <g transform="translate(640, 55)">
      <rect width="580" height="180" rx="8" fill="#0b1120" stroke="#1e293b"/>
      <text x="20" y="26" font-family="sans-serif" font-size="13" font-weight="700" fill="#818cf8">2. Trade-off: Mean vs. Median Accuracy</text>
      <text x="20" y="52" font-family="sans-serif" font-size="11" fill="#cbd5e1">
        <tspan x="20" dy="0">• <tspan fill="#818cf8" font-weight="700">Mean MABE Winner:</tspan> Dense 3D achieved <tspan fill="#34d399" font-weight="700">5.87 ± 2.13 µm</tspan> vs 6.22 µm for Bi-Planar.</tspan>
        <tspan x="20" dy="18">• <tspan fill="#2dd4bf" font-weight="700">Median MABE Winner:</tspan> Bi-Planar won on 34/40 eyes (<tspan fill="#2dd4bf" font-weight="700">4.71 µm</tspan> vs 5.50 µm).</tspan>
        <tspan x="20" dy="24">• <tspan fill="#fbbf24" font-weight="700">Clinical Deployment Recommendation:</tspan></tspan>
        <tspan x="20" dy="18">  Use Bi-Planar 2.5D as the primary measurement tool; use Dense 3D as a</tspan>
        <tspan x="20" dy="18">  disagreement-based automated quality-control gatekeeper!</tspan>
      </text>
    </g>
  </g>
</svg>